<svg xmlns="http://www.w3.org/2000/svg" xmlns:xlink="http://www.w3.org/1999/xlink" version="1.1" class="marks" width="1155" height="460" viewBox="0 0 1155 460"><rect width="1155" height="460" fill="white"/><g fill="none" stroke-miterlimit="10" transform="translate(94,77)"><g class="mark-group role-frame root" role="graphics-object" aria-roledescription="group mark container"><g transform="translate(0,0)"><path class="background" aria-hidden="true" d="M0.5,0.5h900v300h-900Z" stroke="#ddd"/><g><g class="mark-group role-axis" aria-hidden="true"><g transform="translate(0.5,0.5)"><path class="background" aria-hidden="true" d="M0,0h0v0h0Z" pointer-events="none"/><g><g class="mark-rule role-axis-grid" pointer-events="none"><line transform="translate(0,300)" x2="900" y2="0" stroke="#ddd" stroke-width="1" opacity="1"/><line transform="translate(0,257)" x2="900" y2="0" stroke="#ddd" stroke-width="1" opacity="1"/><line transform="translate(0,214)" x2="900" y2="0" stroke="#ddd" stroke-width="1" opacity="1"/><line transform="translate(0,171)" x2="900" y2="0" stroke="#ddd" stroke-width="1" opacity="1"/><line transform="translate(0,129)" x2="900" y2="0" stroke="#ddd" stroke-width="1" opacity="1"/><line transform="translate(0,86)" x2="900" y2="0" stroke="#ddd" stroke-width="1" opacity="1"/><line transform="translate(0,43)" x2="900" y2="0" stroke="#ddd" stroke-width="1" opacity="1"/><line transform="translate(0,0)" x2="900" y2="0" stroke="#ddd" stroke-width="1" opacity="1"/></g></g><path class="foreground" aria-hidden="true" d="" pointer-events="none" display="none"/></g></g><g class="mark-group role-axis" role="graphics-symbol" aria-roledescription="axis" aria-label="X-axis titled '年' for a discrete scale with 48 values: 1970, 1971, 1972, 1973, 1974, ending with 2017"><g transform="translate(0.5,300.5)"><path class="background" aria-hidden="true" d="M0,0h0v0h0Z" pointer-events="none"/><g><g class="mark-rule role-axis-tick" pointer-events="none"><line transform="translate(9,0)" x2="0" y2="5" stroke="#888" stroke-width="1" opacity="1"/><line transform="translate(28,0)" x2="0" y2="5" stroke="#888" stroke-width="1" opacity="1"/><line transform="translate(47,0)" x2="0" y2="5" stroke="#888" stroke-width="1" opacity="1"/><line transform="translate(66,0)" x2="0" y2="5" stroke="#888" stroke-width="1" opacity="1"/><line transform="translate(84,0)" x2="0" y2="5" stroke="#888" stroke-width="1" opacity="1"/><line transform="translate(103,0)" x2="0" y2="5" stroke="#888" stroke-width="1" opacity="1"/><line transform="translate(122,0)" x2="0" y2="5" stroke="#888" stroke-width="1" opacity="1"/><line transform="translate(141,0)" x2="0" y2="5" stroke="#888" stroke-width="1" opacity="1"/><line transform="translate(159,0)" x2="0" y2="5" stroke="#888" stroke-width="1" opacity="1"/><line transform="translate(178,0)" x2="0" y2="5" stroke="#888" stroke-width="1" opacity="1"/><line transform="translate(197,0)" x2="0" y2="5" stroke="#888" stroke-width="1" opacity="1"/><line transform="translate(216,0)" x2="0" y2="5" stroke="#888" stroke-width="1" opacity="1"/><line transform="translate(234,0)" x2="0" y2="5" stroke="#888" stroke-width="1" opacity="1"/><line transform="translate(253,0)" x2="0" y2="5" stroke="#888" stroke-width="1" opacity="1"/><line transform="translate(272,0)" x2="0" y2="5" stroke="#888" stroke-width="1" opacity="1"/><line transform="translate(291,0)" x2="0" y2="5" stroke="#888" stroke-width="1" opacity="1"/><line transform="translate(309,0)" x2="0" y2="5" stroke="#888" stroke-width="1" opacity="1"/><line transform="translate(328,0)" x2="0" y2="5" stroke="#888" stroke-width="1" opacity="1"/><line transform="translate(347,0)" x2="0" y2="5" stroke="#888" stroke-width="1" opacity="1"/><line transform="translate(366,0)" x2="0" y2="5" stroke="#888" stroke-width="1" opacity="1"/><line transform="translate(384,0)" x2="0" y2="5" stroke="#888" stroke-width="1" opacity="1"/><line transform="translate(403,0)" x2="0" y2="5" stroke="#888" stroke-width="1" opacity="1"/><line transform="translate(422,0)" x2="0" y2="5" stroke="#888" stroke-width="1" opacity="1"/><line transform="translate(441,0)" x2="0" y2="5" stroke="#888" stroke-width="1" opacity="1"/><line transform="translate(459,0)" x2="0" y2="5" stroke="#888" stroke-width="1" opacity="1"/><line transform="translate(478,0)" x2="0" y2="5" stroke="#888" stroke-width="1" opacity="1"/><line transform="translate(497,0)" x2="0" y2="5" stroke="#888" stroke-width="1" opacity="1"/><line transform="translate(516,0)" x2="0" y2="5" stroke="#888" stroke-width="1" opacity="1"/><line transform="translate(534,0)" x2="0" y2="5" stroke="#888" stroke-width="1" opacity="1"/><line transform="translate(553,0)" x2="0" y2="5" stroke="#888" stroke-width="1" opacity="1"/><line transform="translate(572,0)" x2="0" y2="5" stroke="#888" stroke-width="1" opacity="1"/><line transform="translate(591,0)" x2="0" y2="5" stroke="#888" stroke-width="1" opacity="1"/><line transform="translate(609,0)" x2="0" y2="5" stroke="#888" stroke-width="1" opacity="1"/><line transform="translate(628,0)" x2="0" y2="5" stroke="#888" stroke-width="1" opacity="1"/><line transform="translate(647,0)" x2="0" y2="5" stroke="#888" stroke-width="1" opacity="1"/><line transform="translate(666,0)" x2="0" y2="5" stroke="#888" stroke-width="1" opacity="1"/><line transform="translate(684,0)" x2="0" y2="5" stroke="#888" stroke-width="1" opacity="1"/><line transform="translate(703,0)" x2="0" y2="5" stroke="#888" stroke-width="1" opacity="1"/><line transform="translate(722,0)" x2="0" y2="5" stroke="#888" stroke-width="1" opacity="1"/><line transform="translate(741,0)" x2="0" y2="5" stroke="#888" stroke-width="1" opacity="1"/><line transform="translate(759,0)" x2="0" y2="5" stroke="#888" stroke-width="1" opacity="1"/><line transform="translate(778,0)" x2="0" y2="5" stroke="#888" stroke-width="1" opacity="1"/><line transform="translate(797,0)" x2="0" y2="5" stroke="#888" stroke-width="1" opacity="1"/><line transform="translate(816,0)" x2="0" y2="5" stroke="#888" stroke-width="1" opacity="1"/><line transform="translate(834,0)" x2="0" y2="5" stroke="#888" stroke-width="1" opacity="1"/><line transform="translate(853,0)" x2="0" y2="5" stroke="#888" stroke-width="1" opacity="1"/><line transform="translate(872,0)" x2="0" y2="5" stroke="#888" stroke-width="1" opacity="1"/><line transform="translate(891,0)" x2="0" y2="5" stroke="#888" stroke-width="1" opacity="1"/></g><g class="mark-text role-axis-label" pointer-events="none"><text text-anchor="end" transform="translate(9.375,7) rotate(270) translate(0,5)" font-family="Source Han Code JP" font-size="16px" fill="#000" opacity="1">1970</text><text text-anchor="end" transform="translate(28.125,7) rotate(270) translate(0,5)" font-family="Source Han Code JP" font-size="16px" fill="#000" opacity="1">1971</text><text text-anchor="end" transform="translate(46.875,7) rotate(270) translate(0,5)" font-family="Source Han Code JP" font-size="16px" fill="#000" opacity="1">1972</text><text text-anchor="end" transform="translate(65.625,7) rotate(270) translate(0,5)" font-family="Source Han Code JP" font-size="16px" fill="#000" opacity="1">1973</text><text text-anchor="end" transform="translate(84.375,7) rotate(270) translate(0,5)" font-family="Source Han Code JP" font-size="16px" fill="#000" opacity="1">1974</text><text text-anchor="end" transform="translate(103.125,7) rotate(270) translate(0,5)" font-family="Source Han Code JP" font-size="16px" fill="#000" opacity="1">1975</text><text text-anchor="end" transform="translate(121.875,7) rotate(270) translate(0,5)" font-family="Source Han Code JP" font-size="16px" fill="#000" opacity="1">1976</text><text text-anchor="end" transform="translate(140.625,7) rotate(270) translate(0,5)" font-family="Source Han Code JP" font-size="16px" fill="#000" opacity="1">1977</text><text text-anchor="end" transform="translate(159.375,7) rotate(270) translate(0,5)" font-family="Source Han Code JP" font-size="16px" fill="#000" opacity="1">1978</text><text text-anchor="end" transform="translate(178.125,7) rotate(270) translate(0,5)" font-family="Source Han Code JP" font-size="16px" fill="#000" opacity="1">1979</text><text text-anchor="end" transform="translate(196.875,7) rotate(270) translate(0,5)" font-family="Source Han Code JP" font-size="16px" fill="#000" opacity="1">1980</text><text text-anchor="end" transform="translate(215.625,7) rotate(270) translate(0,5)" font-family="Source Han Code JP" font-size="16px" fill="#000" opacity="1">1981</text><text text-anchor="end" transform="translate(234.375,7) rotate(270) translate(0,5)" font-family="Source Han Code JP" font-size="16px" fill="#000" opacity="1">1982</text><text text-anchor="end" transform="translate(253.125,7) rotate(270) translate(0,5)" font-family="Source Han Code JP" font-size="16px" fill="#000" opacity="1">1983</text><text text-anchor="end" transform="translate(271.875,7) rotate(270) translate(0,5)" font-family="Source Han Code JP" font-size="16px" fill="#000" opacity="1">1984</text><text text-anchor="end" transform="translate(290.625,7) rotate(270) translate(0,5)" font-family="Source Han Code JP" font-size="16px" fill="#000" opacity="1">1985</text><text text-anchor="end" transform="translate(309.375,7) rotate(270) translate(0,5)" font-family="Source Han Code JP" font-size="16px" fill="#000" opacity="1">1986</text><text text-anchor="end" transform="translate(328.125,7) rotate(270) translate(0,5)" font-family="Source Han Code JP" font-size="16px" fill="#000" opacity="1">1987</text><text text-anchor="end" transform="translate(346.875,7) rotate(270) translate(0,5)" font-family="Source Han Code JP" font-size="16px" fill="#000" opacity="1">1988</text><text text-anchor="end" transform="translate(365.625,7) rotate(270) translate(0,5)" font-family="Source Han Code JP" font-size="16px" fill="#000" opacity="1">1989</text><text text-anchor="end" transform="translate(384.375,7) rotate(270) translate(0,5)" font-family="Source Han Code JP" font-size="16px" fill="#000" opacity="1">1990</text><text text-anchor="end" transform="translate(403.125,7) rotate(270) translate(0,5)" font-family="Source Han Code JP" font-size="16px" fill="#000" opacity="1">1991</text><text text-anchor="end" transform="translate(421.875,7) rotate(270) translate(0,5)" font-family="Source Han Code JP" font-size="16px" fill="#000" opacity="1">1992</text><text text-anchor="end" transform="translate(440.625,7) rotate(270) translate(0,5)" font-family="Source Han Code JP" font-size="16px" fill="#000" opacity="1">1993</text><text text-anchor="end" transform="translate(459.375,7) rotate(270) translate(0,5)" font-family="Source Han Code JP" font-size="16px" fill="#000" opacity="1">1994</text><text text-anchor="end" transform="translate(478.125,7) rotate(270) translate(0,5)" font-family="Source Han Code JP" font-size="16px" fill="#000" opacity="1">1995</text><text text-anchor="end" transform="translate(496.875,7) rotate(270) translate(0,5)" font-family="Source Han Code JP" font-size="16px" fill="#000" opacity="1">1996</text><text text-anchor="end" transform="translate(515.625,7) rotate(270) translate(0,5)" font-family="Source Han Code JP" font-size="16px" fill="#000" opacity="1">1997</text><text text-anchor="end" transform="translate(534.375,7) rotate(270) translate(0,5)" font-family="Source Han Code JP" font-size="16px" fill="#000" opacity="1">1998</text><text text-anchor="end" transform="translate(553.125,7) rotate(270) translate(0,5)" font-family="Source Han Code JP" font-size="16px" fill="#000" opacity="1">1999</text><text text-anchor="end" transform="translate(571.875,7) rotate(270) translate(0,5)" font-family="Source Han Code JP" font-size="16px" fill="#000" opacity="1">2000</text><text text-anchor="end" transform="translate(590.625,7) rotate(270) translate(0,5)" font-family="Source Han Code JP" font-size="16px" fill="#000" opacity="1">2001</text><text text-anchor="end" transform="translate(609.375,7) rotate(270) translate(0,5)" font-family="Source Han Code JP" font-size="16px" fill="#000" opacity="1">2002</text><text text-anchor="end" transform="translate(628.125,7) rotate(270) translate(0,5)" font-family="Source Han Code JP" font-size="16px" fill="#000" opacity="1">2003</text><text text-anchor="end" transform="translate(646.875,7) rotate(270) translate(0,5)" font-family="Source Han Code JP" font-size="16px" fill="#000" opacity="1">2004</text><text text-anchor="end" transform="translate(665.625,7) rotate(270) translate(0,5)" font-family="Source Han Code JP" font-size="16px" fill="#000" opacity="1">2005</text><text text-anchor="end" transform="translate(684.375,7) rotate(270) translate(0,5)" font-family="Source Han Code JP" font-size="16px" fill="#000" opacity="1">2006</text><text text-anchor="end" transform="translate(703.125,7) rotate(270) translate(0,5)" font-family="Source Han Code JP" font-size="16px" fill="#000" opacity="1">2007</text><text text-anchor="end" transform="translate(721.875,7) rotate(270) translate(0,5)" font-family="Source Han Code JP" font-size="16px" fill="#000" opacity="1">2008</text><text text-anchor="end" transform="translate(740.625,7) rotate(270) translate(0,5)" font-family="Source Han Code JP" font-size="16px" fill="#000" opacity="1">2009</text><text text-anchor="end" transform="translate(759.375,7) rotate(270) translate(0,5)" font-family="Source Han Code JP" font-size="16px" fill="#000" opacity="1">2010</text><text text-anchor="end" transform="translate(778.125,7) rotate(270) translate(0,5)" font-family="Source Han Code JP" font-size="16px" fill="#000" opacity="1">2011</text><text text-anchor="end" transform="translate(796.875,7) rotate(270) translate(0,5)" font-family="Source Han Code JP" font-size="16px" fill="#000" opacity="1">2012</text><text text-anchor="end" transform="translate(815.625,7) rotate(270) translate(0,5)" font-family="Source Han Code JP" font-size="16px" fill="#000" opacity="1">2013</text><text text-anchor="end" transform="translate(834.375,7) rotate(270) translate(0,5)" font-family="Source Han Code JP" font-size="16px" fill="#000" opacity="1">2014</text><text text-anchor="end" transform="translate(853.125,7) rotate(270) translate(0,5)" font-family="Source Han Code JP" font-size="16px" fill="#000" opacity="1">2015</text><text text-anchor="end" transform="translate(871.875,7) rotate(270) translate(0,5)" font-family="Source Han Code JP" font-size="16px" fill="#000" opacity="1">2016</text><text text-anchor="end" transform="translate(890.625,7) rotate(270) translate(0,5)" font-family="Source Han Code JP" font-size="16px" fill="#000" opacity="1">2017</text></g><g class="mark-rule role-axis-domain" pointer-events="none"><line transform="translate(0,0)" x2="900" y2="0" stroke="#888" stroke-width="1" opacity="1"/></g><g class="mark-text role-axis-title" pointer-events="none"><text text-anchor="middle" transform="translate(450,72.68800354003906)" font-family="Noto Sans JP" font-size="24px" font-weight="bold" fill="#000" opacity="1">年</text></g></g><path class="foreground" aria-hidden="true" d="" pointer-events="none" display="none"/></g></g><g class="mark-group role-axis" role="graphics-symbol" aria-roledescription="axis" aria-label="Y-axis titled 'エピソード数' for a linear scale with values from 0 to 1,400"><g transform="translate(0.5,0.5)"><path class="background" aria-hidden="true" d="M0,0h0v0h0Z" pointer-events="none"/><g><g class="mark-rule role-axis-tick" pointer-events="none"><line transform="translate(0,300)" x2="-5" y2="0" stroke="#888" stroke-width="1" opacity="1"/><line transform="translate(0,257)" x2="-5" y2="0" stroke="#888" stroke-width="1" opacity="1"/><line transform="translate(0,214)" x2="-5" y2="0" stroke="#888" stroke-width="1" opacity="1"/><line transform="translate(0,171)" x2="-5" y2="0" stroke="#888" stroke-width="1" opacity="1"/><line transform="translate(0,129)" x2="-5" y2="0" stroke="#888" stroke-width="1" opacity="1"/><line transform="translate(0,86)" x2="-5" y2="0" stroke="#888" stroke-width="1" opacity="1"/><line transform="translate(0,43)" x2="-5" y2="0" stroke="#888" stroke-width="1" opacity="1"/><line transform="translate(0,0)" x2="-5" y2="0" stroke="#888" stroke-width="1" opacity="1"/></g><g class="mark-text role-axis-label" pointer-events="none"><text text-anchor="end" transform="translate(-7,305)" font-family="Source Han Code JP" font-size="16px" fill="#000" opacity="1">0</text><text text-anchor="end" transform="translate(-7,262.14285714285717)" font-family="Source Han Code JP" font-size="16px" fill="#000" opacity="1">200</text><text text-anchor="end" transform="translate(-7,219.28571428571428)" font-family="Source Han Code JP" font-size="16px" fill="#000" opacity="1">400</text><text text-anchor="end" transform="translate(-7,176.42857142857142)" font-family="Source Han Code JP" font-size="16px" fill="#000" opacity="1">600</text><text text-anchor="end" transform="translate(-7,133.57142857142858)" font-family="Source Han Code JP" font-size="16px" fill="#000" opacity="1">800</text><text text-anchor="end" transform="translate(-7,90.71428571428571)" font-family="Source Han Code JP" font-size="16px" fill="#000" opacity="1">1,000</text><text text-anchor="end" transform="translate(-7,47.85714285714287)" font-family="Source Han Code JP" font-size="16px" fill="#000" opacity="1">1,200</text><text text-anchor="end" transform="translate(-7,5)" font-family="Source Han Code JP" font-size="16px" fill="#000" opacity="1">1,400</text></g><g class="mark-rule role-axis-domain" pointer-events="none"><line transform="translate(0,300)" x2="0" y2="-300" stroke="#888" stroke-width="1" opacity="1"/></g><g class="mark-text role-axis-title" pointer-events="none"><text text-anchor="middle" transform="translate(-64.36000061035156,150) rotate(-90) translate(0,-5)" font-family="Noto Sans JP" font-size="24px" font-weight="bold" fill="#000" opacity="1">エピソード数</text></g></g><path class="foreground" aria-hidden="true" d="" pointer-events="none" display="none"/></g></g><g class="mark-group role-scope pathgroup" role="graphics-object" aria-roledescription="group mark container"><g transform="translate(0,0)"><path class="background" aria-hidden="true" d="M0,0h900v300h-900Z"/><g><g class="mark-line role-mark marks" role="graphics-object" aria-roledescription="line mark container"><path aria-label="年: 1970; エピソード数: 259; mcname: 週刊少年サンデー; 雑誌名: 週刊少年サンデー" role="graphics-symbol" aria-roledescription="line mark" d="M9.375,244.5L28.125,164.357L46.875,157.286L65.625,156.429L84.375,181.929L103.125,172.929L121.875,154.286L140.625,160.286L159.375,161.357L178.125,147.214L196.875,137.786L215.625,132L234.375,116.571L253.125,113.143L271.875,126.643L290.625,138.643L309.375,134.571L328.125,125.143L346.875,90.429L365.625,78.214L384.375,72.643L403.125,70.286L421.875,79.071L440.625,80.571L459.375,63.857L478.125,67.5L496.875,64.5L515.625,55.071L534.375,53.786L553.125,52.286L571.875,51.214L590.625,54.214L609.375,63.857L628.125,64.929L646.875,66.214L665.625,65.357L684.375,52.071L703.125,58.929L721.875,40.929L740.625,23.357L759.375,49.286L778.125,52.714L796.875,47.571L815.625,35.143L834.375,30.429L853.125,3.214L871.875,33.643L890.625,160.286" stroke="#1f77b4" stroke-width="2" stroke-dasharray="1,0"/></g></g><path class="foreground" aria-hidden="true" d="" display="none"/></g><g transform="translate(0,0)"><path class="background" aria-hidden="true" d="M0,0h900v300h-900Z"/><g><g class="mark-line role-mark marks" role="graphics-object" aria-roledescription="line mark container"><path aria-label="年: 1970; エピソード数: 327; mcname: 週刊少年ジャンプ; 雑誌名: 週刊少年ジャンプ" role="graphics-symbol" aria-roledescription="line mark" d="M9.375,229.929L28.125,144.857L46.875,140.143L65.625,123.857L84.375,147L103.125,152.786L121.875,143.357L140.625,140.571L159.375,143.571L178.125,138.857L196.875,130.929L215.625,122.143L234.375,122.786L253.125,123.857L271.875,126.214L290.625,128.786L309.375,126L328.125,114.214L346.875,96.429L365.625,90.643L384.375,86.357L403.125,105.857L421.875,101.143L440.625,96.429L459.375,90.643L478.125,89.786L496.875,94.071L515.625,98.571L534.375,102.214L553.125,97.071L571.875,97.286L590.625,85.286L609.375,88.286L628.125,90L646.875,91.071L665.625,90.857L684.375,84.429L703.125,80.571L721.875,78.429L740.625,49.929L759.375,75.857L778.125,103.714L796.875,67.929L815.625,70.071L834.375,50.357L853.125,75.643L871.875,74.357L890.625,177" stroke="#ff7f0e" stroke-width="2" stroke-dasharray="4,2"/></g></g><path class="foreground" aria-hidden="true" d="" display="none"/></g><g transform="translate(0,0)"><path class="background" aria-hidden="true" d="M0,0h900v300h-900Z"/><g><g class="mark-line role-mark marks" role="graphics-object" aria-roledescription="line mark container"><path aria-label="年: 1970; エピソード数: 387; mcname: 週刊少年チャンピオン; 雑誌名: 週刊少年チャンピオン" role="graphics-symbol" aria-roledescription="line mark" d="M9.375,217.071L28.125,129.429L46.875,144L65.625,145.714L84.375,166.5L103.125,164.786L121.875,153.643L140.625,142.071L159.375,142.286L178.125,140.786L196.875,127.714L215.625,126.643L234.375,127.286L253.125,124.286L271.875,117.643L290.625,118.5L309.375,124.5L328.125,97.286L346.875,93.643L365.625,101.143L384.375,97.5L403.125,90L421.875,96.643L440.625,108.643L459.375,99L478.125,86.357L496.875,92.143L515.625,75L534.375,62.571L553.125,57.429L571.875,54.643L590.625,50.357L609.375,51.643L628.125,58.071L646.875,51L665.625,73.929L684.375,31.5L703.125,25.071L721.875,42L740.625,51L759.375,47.571L778.125,53.357L796.875,54.643L815.625,64.714L834.375,70.071L853.125,74.786L871.875,67.071L890.625,175.714" stroke="#2ca02c" stroke-width="2" stroke-dasharray="2,1"/></g></g><path class="foreground" aria-hidden="true" d="" display="none"/></g><g transform="translate(0,0)"><path class="background" aria-hidden="true" d="M0,0h900v300h-900Z"/><g><g class="mark-line role-mark marks" role="graphics-object" aria-roledescription="line mark container"><path aria-label="年: 1970; エピソード数: 228; mcname: 週刊少年マガジン; 雑誌名: 週刊少年マガジン" role="graphics-symbol" aria-roledescription="line mark" d="M9.375,251.143L28.125,172.929L46.875,171.429L65.625,168L84.375,193.071L103.125,178.714L121.875,156.214L140.625,148.714L159.375,143.571L178.125,128.786L196.875,134.357L215.625,132L234.375,141.643L253.125,135L271.875,129.643L290.625,129.857L309.375,136.071L328.125,120.214L346.875,94.714L365.625,77.357L384.375,82.929L403.125,91.286L421.875,101.786L440.625,99L459.375,91.071L478.125,83.143L496.875,80.786L515.625,70.929L534.375,77.786L553.125,70.286L571.875,66.429L590.625,69.643L609.375,66.857L628.125,72L646.875,57.857L665.625,37.714L684.375,44.571L703.125,42.429L721.875,41.571L740.625,36.214L759.375,19.5L778.125,24.643L796.875,25.714L815.625,30.214L834.375,30.643L853.125,37.5L871.875,38.786L890.625,156.429" stroke="#d62728" stroke-width="2" stroke-dasharray="1,1"/></g></g><path class="foreground" aria-hidden="true" d="" display="none"/></g></g><g class="mark-group role-legend" role="graphics-symbol" aria-roledescription="legend" aria-label="Symbol legend titled '雑誌名' for stroke color and strokeDash with 4 values: 週刊少年サンデー, 週刊少年ジャンプ, 週刊少年チャンピオン, 週刊少年マガジン"><g transform="translate(920,0)"><path class="background" aria-hidden="true" d="M0,0h136v73h-136Z" pointer-events="none"/><g><g class="mark-group role-legend-entry"><g transform="translate(0,19)"><path class="background" aria-hidden="true" d="M0,0h0v0h0Z" pointer-events="none"/><g><g class="mark-group role-scope" role="graphics-object" aria-roledescription="group mark container"><g transform="translate(0,0)"><path class="background" aria-hidden="true" d="M0,0h136v12h-136Z" pointer-events="none" opacity="1"/><g><g class="mark-symbol role-legend-symbol" pointer-events="none"><path transform="translate(6,6)" d="M-5,0L5,0" stroke="#1f77b4" stroke-width="1.5" stroke-dasharray="1,0" opacity="1"/></g><g class="mark-text role-legend-label" pointer-events="none"><text text-anchor="start" transform="translate(16,10)" font-family="Source Han Code JP" font-size="12px" fill="#000" opacity="1">週刊少年サンデー</text></g></g><path class="foreground" aria-hidden="true" d="" pointer-events="none" display="none"/></g><g transform="translate(0,14)"><path class="background" aria-hidden="true" d="M0,0h136v12h-136Z" pointer-events="none" opacity="1"/><g><g class="mark-symbol role-legend-symbol" pointer-events="none"><path transform="translate(6,6)" d="M-5,0L5,0" stroke="#ff7f0e" stroke-width="1.5" stroke-dasharray="4,2" opacity="1"/></g><g class="mark-text role-legend-label" pointer-events="none"><text text-anchor="start" transform="translate(16,10)" font-family="Source Han Code JP" font-size="12px" fill="#000" opacity="1">週刊少年ジャンプ</text></g></g><path class="foreground" aria-hidden="true" d="" pointer-events="none" display="none"/></g><g transform="translate(0,28)"><path class="background" aria-hidden="true" d="M0,0h136v12h-136Z" pointer-events="none" opacity="1"/><g><g class="mark-symbol role-legend-symbol" pointer-events="none"><path transform="translate(6,6)" d="M-5,0L5,0" stroke="#2ca02c" stroke-width="1.5" stroke-dasharray="2,1" opacity="1"/></g><g class="mark-text role-legend-label" pointer-events="none"><text text-anchor="start" transform="translate(16,10)" font-family="Source Han Code JP" font-size="12px" fill="#000" opacity="1">週刊少年チャンピオン</text></g></g><path class="foreground" aria-hidden="true" d="" pointer-events="none" display="none"/></g><g transform="translate(0,42)"><path class="background" aria-hidden="true" d="M0,0h136v12h-136Z" pointer-events="none" opacity="1"/><g><g class="mark-symbol role-legend-symbol" pointer-events="none"><path transform="translate(6,6)" d="M-5,0L5,0" stroke="#d62728" stroke-width="1.5" stroke-dasharray="1,1" opacity="1"/></g><g class="mark-text role-legend-label" pointer-events="none"><text text-anchor="start" transform="translate(16,10)" font-family="Source Han Code JP" font-size="12px" fill="#000" opacity="1">週刊少年マガジン</text></g></g><path class="foreground" aria-hidden="true" d="" pointer-events="none" display="none"/></g></g></g><path class="foreground" aria-hidden="true" d="" pointer-events="none" display="none"/></g></g><g class="mark-text role-legend-title" pointer-events="none"><text text-anchor="start" transform="translate(0,11)" font-family="Noto Sans JP" font-size="14px" font-weight="bold" fill="#000" opacity="1">雑誌名</text></g></g><path class="foreground" aria-hidden="true" d="" pointer-events="none" display="none"/></g></g><g class="mark-group role-title"><g transform="translate(450,-71)"><path class="background" aria-hidden="true" d="M0,0h0v0h0Z" pointer-events="none"/><g><g class="mark-text role-title-text" role="graphics-symbol" aria-roledescription="title" aria-label="Title text 'エピソード数の推移'" pointer-events="none"><text text-anchor="middle" transform="translate(0,25)" font-family="Noto Sans JP" font-size="32px" font-weight="bold" fill="#000" opacity="1">エピソード数の推移</text></g><g class="mark-text role-title-subtitle" role="graphics-symbol" aria-roledescription="subtitle" aria-label="Subtitle text 'データの出典: 文化庁メディア芸術データベース・ラボ'" pointer-events="none"><text text-anchor="middle" transform="translate(0,55)" font-family="Noto Sans JP" font-size="16px" fill="#000" opacity="1">データの出典: 文化庁メディア芸術データベース・ラボ</text></g></g><path class="foreground" aria-hidden="true" d="" pointer-events="none" display="none"/></g></g></g><path class="foreground" aria-hidden="true" d="" display="none"/></g></g></g></svg>